<svg width="38" height="16" viewBox="0 0 38 16" fill="none" xmlns="http://www.w3.org/2000/svg">
<g id="logo">
<path id="circle" d="M16 8C16 12.4183 12.4183 16 8 16C3.58172 16 0 12.4183 0 8C0 3.58172 3.58172 0 8 0C12.4183 0 16 3.58172 16 8Z" fill="#4747CF"/>
<path id="circle_2" fill-rule="evenodd" clip-rule="evenodd" d="M14.2881 14.6077C16.0305 12.9314 17.1141 10.5798 17.1141 7.97612C17.1141 5.38693 16.0426 3.04706 14.3171 1.37265C15.6006 0.506162 17.1492 0 18.8165 0C23.2515 0 26.8469 3.58172 26.8469 8C26.8469 12.4183 23.2515 16 18.8165 16C17.1366 16 15.5773 15.4862 14.2881 14.6077Z" fill="#6B5CFF"/>
<path id="triangle" fill-rule="evenodd" clip-rule="evenodd" d="M23.3555 16C26.1117 14.4041 27.9649 11.4297 27.9649 8.02388C27.9649 6.24373 27.4587 4.58144 26.5817 3.17224L28.4202 0L37.6929 16H23.3555Z" fill="#FFD700"/>
</g>
</svg>
